<svg width="32" height="32" viewBox="0 0 32 32" fill="none" xmlns="http://www.w3.org/2000/svg">
<path fill-rule="evenodd" clip-rule="evenodd" d="M4 16C4 15.2636 4.59696 14.6666 5.33333 14.6666H26.6667C27.4031 14.6666 28 15.2636 28 16C28 16.7364 27.4031 17.3333 26.6667 17.3333H5.33333C4.59696 17.3333 4 16.7364 4 16Z" fill="#141B34"/>
<path d="M6.70381 16C6.82821 16.2064 7.089 16.5772 7.37416 16.8999C7.94183 17.5424 8.72413 18.2763 9.5408 18.9852C10.3508 19.6885 11.1648 20.3419 11.7786 20.8208C12.0848 21.0597 12.6133 21.4589 12.7908 21.5931C13.3836 22.0297 13.5103 22.8644 13.0736 23.4572C12.6369 24.0501 11.8023 24.1768 11.2093 23.7401L11.2044 23.7364C11.0119 23.5911 10.4537 23.1695 10.138 22.9231C9.50187 22.4267 8.64915 21.7427 7.79252 20.9989C6.94252 20.2609 6.05816 19.4379 5.37583 18.6656C5.036 18.2811 4.71808 17.8776 4.47789 17.4792C4.25979 17.1173 4.00003 16.5909 4 16C4.00003 15.4092 4.25979 14.8827 4.47789 14.5208C4.71808 14.1224 5.036 13.7189 5.37581 13.3344C6.05816 12.5621 6.94252 11.7391 7.79252 11.0011C8.64915 10.2574 9.50187 9.57336 10.138 9.07689C10.4537 8.83055 11.0115 8.40924 11.204 8.26384L11.2093 8.25983C11.8023 7.82315 12.6369 7.94981 13.0736 8.54275C13.5103 9.13564 13.3836 9.97024 12.7908 10.4069C12.6133 10.541 12.0848 10.9402 11.7786 11.1792C11.1648 11.6582 10.3508 12.3114 9.5408 13.0147C8.72413 13.7237 7.94183 14.4576 7.37416 15.1001C7.089 15.4228 6.82821 15.7936 6.70381 16Z" fill="#141B34"/>
</svg>
