<svg width="16" height="16" viewBox="0 0 16 16" fill="none" xmlns="http://www.w3.org/2000/svg">
<path d="M3.33325 6C3.33325 3.79086 5.42259 2 7.99992 2C10.5773 2 12.6666 3.79086 12.6666 6" stroke="#E3F9F1" stroke-opacity="0.8" stroke-width="1.25" stroke-linecap="round" stroke-linejoin="round"/>
<path d="M12.6667 11.3333V12.6667C12.6667 13.4031 12.0697 14 11.3333 14H8" stroke="#E3F9F1" stroke-opacity="0.8" stroke-width="1.25" stroke-linecap="round" stroke-linejoin="round"/>
<path d="M2.73656 6.39902L1.63045 7.13546C1.44479 7.25906 1.33325 7.46733 1.33325 7.6904V9.64293C1.33325 9.866 1.44479 10.0743 1.63045 10.1979L2.73656 10.9343C3.10721 11.1811 3.58162 11.2105 3.97993 11.0115C4.40074 10.8011 4.66659 10.3711 4.66659 9.90066V7.43266C4.66659 6.96226 4.40074 6.5322 3.97993 6.32188C3.58162 6.12281 3.10721 6.15224 2.73656 6.39902Z" stroke="#E3F9F1" stroke-opacity="0.8" stroke-width="1.25" stroke-linecap="round" stroke-linejoin="round"/>
<path d="M12.0199 6.32188C12.4182 6.12281 12.8927 6.15224 13.2633 6.39902L14.3694 7.13546C14.5551 7.25906 14.6666 7.46733 14.6666 7.6904V9.64293C14.6666 9.866 14.5551 10.0743 14.3694 10.1979L13.2633 10.9343C12.8927 11.1811 12.4182 11.2105 12.0199 11.0115C11.5991 10.8011 11.3333 10.3711 11.3333 9.90066V7.43266C11.3333 6.96226 11.5991 6.5322 12.0199 6.32188Z" stroke="#E3F9F1" stroke-opacity="0.8" stroke-width="1.25" stroke-linecap="round" stroke-linejoin="round"/>
</svg>
