<svg width="20" height="20" viewBox="0 0 20 20" fill="none" xmlns="http://www.w3.org/2000/svg">
<path fill-rule="evenodd" clip-rule="evenodd" d="M2.69211 7.50781C3.14809 7.57027 3.4671 7.99055 3.40464 8.44653C3.3576 8.78994 3.33317 9.14169 3.33317 9.50011C3.33317 13.5096 6.36779 16.6668 9.99984 16.6668C13.6319 16.6668 16.6665 13.5096 16.6665 9.50011C16.6665 9.14169 16.6421 8.78994 16.595 8.44653C16.5326 7.99055 16.8516 7.57027 17.3076 7.50781C17.7635 7.44535 18.1838 7.76436 18.2463 8.22034C18.3036 8.63861 18.3332 9.06594 18.3332 9.50011C18.3332 14.3271 14.6521 18.3334 9.99984 18.3334C5.34762 18.3334 1.6665 14.3271 1.6665 9.50011C1.6665 9.06594 1.6961 8.63861 1.7534 8.22034C1.81585 7.76436 2.23613 7.44535 2.69211 7.50781Z" fill="#00754B"/>
<path fill-rule="evenodd" clip-rule="evenodd" d="M10.8327 2.50008C10.8327 2.03984 10.4596 1.66675 9.99939 1.66675C9.53914 1.66675 9.16605 2.03984 9.16605 2.50008V7.91678L8.6708 7.91676C8.52447 7.91666 8.34472 7.91653 8.1977 7.93492L8.1949 7.93527C8.08954 7.94841 7.6095 8.00827 7.38086 8.47961C7.15173 8.95194 7.40335 9.36877 7.45778 9.45894L7.4598 9.46227C7.53665 9.58977 7.64845 9.73219 7.7404 9.84936L7.76017 9.87452C8.0057 10.1877 8.324 10.5912 8.64105 10.917C8.79922 11.0797 8.9803 11.2474 9.17272 11.3797C9.34372 11.4974 9.63555 11.6668 9.99447 11.6668C10.3534 11.6668 10.6452 11.4974 10.8162 11.3797C11.0086 11.2474 11.1897 11.0797 11.3479 10.917C11.6649 10.5912 11.9832 10.1877 12.2287 9.87452L12.2486 9.84936C12.3405 9.73219 12.4523 9.58977 12.5291 9.46227L12.5311 9.45894C12.5856 9.36877 12.8372 8.95194 12.6081 8.47961C12.3795 8.00827 11.8994 7.94841 11.7941 7.93527L11.7912 7.93492C11.6442 7.91653 11.4645 7.91666 11.3181 7.91676L10.8327 7.91678V2.50008Z" fill="#00754B"/>
</svg>
