<svg width="20" height="21" viewBox="0 0 20 21" fill="none" xmlns="http://www.w3.org/2000/svg">
<path d="M3.3335 10.5003V12.6205C3.3335 15.3247 3.3335 16.6768 4.07189 17.5926C4.22106 17.7776 4.38959 17.9462 4.5746 18.0953C5.49042 18.8337 6.84251 18.8337 9.54666 18.8337C10.1347 18.8337 10.4286 18.8337 10.6978 18.7387C10.7538 18.7189 10.8087 18.6962 10.8622 18.6706C11.1198 18.5474 11.3277 18.3395 11.7434 17.9238L15.6905 13.9767C16.1722 13.4949 16.4131 13.2541 16.54 12.9478C16.6668 12.6415 16.6668 12.3009 16.6668 11.6197V8.83367C16.6668 5.69099 16.6668 4.11965 15.6905 3.14333C14.8079 2.2607 13.4389 2.17602 10.8622 2.16788M10.8335 18.417V18.0003C10.8335 15.6433 10.8335 14.4648 11.5657 13.7326C12.298 13.0003 13.4765 13.0003 15.8335 13.0003H16.2502" stroke="#00754B" stroke-width="1.25" stroke-linecap="round" stroke-linejoin="round"/>
<path d="M3.3335 7.35857V5.05088C3.3335 3.45774 4.63933 2.16626 6.25016 2.16626C7.861 2.16626 9.16683 3.45774 9.16683 5.05088V8.22395C9.16683 9.0205 8.51391 9.66625 7.7085 9.66625C6.90308 9.66625 6.25016 9.0205 6.25016 8.22395V5.05088" stroke="#00754B" stroke-width="1.25" stroke-linecap="round" stroke-linejoin="round"/>
</svg>
