<svg width="16" height="16" viewBox="0 0 16 16" fill="none" xmlns="http://www.w3.org/2000/svg">
<path d="M9.33325 1.46669C8.90245 1.37923 8.45652 1.33333 7.99992 1.33333C4.31802 1.33333 1.33325 4.31809 1.33325 7.99999C1.33325 11.6819 4.31802 14.6667 7.99992 14.6667C11.6818 14.6667 14.6666 11.6819 14.6666 7.99999C14.6666 7.54339 14.6207 7.09746 14.5333 6.66666" stroke="#141B34" stroke-linecap="round"/>
<path d="M8.00008 5.99999C7.26368 5.99999 6.66675 6.44771 6.66675 6.99999C6.66675 7.55226 7.26368 7.99999 8.00008 7.99999C8.73648 7.99999 9.33341 8.44773 9.33341 9C9.33341 9.55226 8.73648 10 8.00008 10M8.00008 5.99999C8.58061 5.99999 9.07448 6.27826 9.25755 6.66666M8.00008 5.99999V5.33333M8.00008 10C7.41955 10 6.92568 9.72173 6.74261 9.33333M8.00008 10V10.6667" stroke="#141B34" stroke-linecap="round"/>
<path d="M11.332 4.66797L14.116 1.88251M14.6654 4.32013L14.5866 2.25914C14.5866 1.77338 14.2966 1.47072 13.7682 1.43255L11.6855 1.33464" stroke="#141B34" stroke-linecap="round" stroke-linejoin="round"/>
</svg>
