<svg width="20" height="21" viewBox="0 0 20 21" fill="none" xmlns="http://www.w3.org/2000/svg">
<path d="M11.6666 4.03105C11.6666 3.11057 10.9204 2.36438 9.99992 2.36438C9.07942 2.36438 8.33325 3.11057 8.33325 4.03105C8.33325 4.95152 9.07942 5.69771 9.99992 5.69771C10.9204 5.69771 11.6666 4.95152 11.6666 4.03105Z" stroke="#F4F6ED" stroke-width="1.25"/>
<path d="M11.6666 10.6977C11.6666 9.77717 10.9204 9.03101 9.99992 9.03101C9.07942 9.03101 8.33325 9.77717 8.33325 10.6977C8.33325 11.6182 9.07942 12.3643 9.99992 12.3643C10.9204 12.3643 11.6666 11.6182 11.6666 10.6977Z" stroke="#F4F6ED" stroke-width="1.25"/>
<path d="M11.6666 17.3644C11.6666 16.4439 10.9204 15.6977 9.99992 15.6977C9.07942 15.6977 8.33325 16.4439 8.33325 17.3644C8.33325 18.2849 9.07942 19.031 9.99992 19.031C10.9204 19.031 11.6666 18.2849 11.6666 17.3644Z" stroke="#F4F6ED" stroke-width="1.25"/>
</svg>
