<svg width="16" height="16" viewBox="0 0 16 16" fill="none" xmlns="http://www.w3.org/2000/svg">
<path d="M8.66659 4.66667C8.66659 6.13943 7.47265 7.33333 5.99992 7.33333C4.52716 7.33333 3.33325 6.13943 3.33325 4.66667C3.33325 3.19391 4.52716 2 5.99992 2C7.47265 2 8.66659 3.19391 8.66659 4.66667Z" stroke="#E3F9F1" stroke-opacity="0.8" stroke-width="1.25" stroke-linecap="round" stroke-linejoin="round"/>
<path d="M10 7.33333C11.4727 7.33333 12.6667 6.13943 12.6667 4.66667C12.6667 3.19391 11.4727 2 10 2" stroke="#E3F9F1" stroke-opacity="0.8" stroke-width="1.25" stroke-linecap="round" stroke-linejoin="round"/>
<path d="M10.6666 12.6667C10.6666 10.8257 9.17418 9.33333 7.33325 9.33333H4.66659C2.82564 9.33333 1.33325 10.8257 1.33325 12.6667V14H10.6666V12.6667Z" stroke="#E3F9F1" stroke-opacity="0.8" stroke-width="1.25" stroke-linecap="round" stroke-linejoin="round"/>
<path d="M12.6666 14H14.6666V12.6667C14.6666 10.8257 13.1742 9.33333 11.3333 9.33333" stroke="#E3F9F1" stroke-opacity="0.8" stroke-width="1.25" stroke-linecap="round" stroke-linejoin="round"/>
</svg>
